<mxfile host="app.diagrams.net" agent="Mozilla/5.0 (Windows NT 10.0; Win64; x64) AppleWebKit/537.36 (KHTML, like Gecko) Chrome/137.0.0.0 Safari/537.36" version="27.1.1">
  <diagram id="uAktcG0FyyMyw8IPpn3j" name="Page-1">
    <mxGraphModel dx="1188" dy="748" grid="1" gridSize="10" guides="1" tooltips="1" connect="1" arrows="1" fold="1" page="1" pageScale="1" pageWidth="827" pageHeight="1169" math="0" shadow="0">
      <root>
        <mxCell id="0" />
        <mxCell id="1" parent="0" />
        <mxCell id="RQJ-cleiF4HPEuwwhb3O-1" value="Austevoll" style="html=1;whiteSpace=wrap;" vertex="1" parent="1">
          <mxGeometry x="380" y="180" width="110" height="50" as="geometry" />
        </mxCell>
        <mxCell id="RQJ-cleiF4HPEuwwhb3O-2" value="Temp. Sensor" style="html=1;whiteSpace=wrap;" vertex="1" parent="1">
          <mxGeometry x="380" y="280" width="110" height="50" as="geometry" />
        </mxCell>
        <mxCell id="RQJ-cleiF4HPEuwwhb3O-3" value="" style="endArrow=classic;html=1;rounded=0;exitX=0.5;exitY=1;exitDx=0;exitDy=0;entryX=0.5;entryY=0;entryDx=0;entryDy=0;" edge="1" parent="1" source="RQJ-cleiF4HPEuwwhb3O-1" target="RQJ-cleiF4HPEuwwhb3O-2">
          <mxGeometry width="50" height="50" relative="1" as="geometry">
            <mxPoint x="610" y="320" as="sourcePoint" />
            <mxPoint x="660" y="270" as="targetPoint" />
          </mxGeometry>
        </mxCell>
        <mxCell id="RQJ-cleiF4HPEuwwhb3O-4" value="Soft Sensor (Compression)" style="html=1;whiteSpace=wrap;" vertex="1" parent="1">
          <mxGeometry x="380" y="370" width="110" height="50" as="geometry" />
        </mxCell>
        <mxCell id="RQJ-cleiF4HPEuwwhb3O-5" value="" style="endArrow=classic;html=1;rounded=0;exitX=0.5;exitY=1;exitDx=0;exitDy=0;entryX=0.5;entryY=0;entryDx=0;entryDy=0;" edge="1" parent="1" source="RQJ-cleiF4HPEuwwhb3O-2" target="RQJ-cleiF4HPEuwwhb3O-4">
          <mxGeometry width="50" height="50" relative="1" as="geometry">
            <mxPoint x="230" y="410" as="sourcePoint" />
            <mxPoint x="280" y="360" as="targetPoint" />
          </mxGeometry>
        </mxCell>
        <mxCell id="RQJ-cleiF4HPEuwwhb3O-6" value="Compression Ratio" style="html=1;whiteSpace=wrap;" vertex="1" parent="1">
          <mxGeometry x="380" y="460" width="110" height="50" as="geometry" />
        </mxCell>
        <mxCell id="RQJ-cleiF4HPEuwwhb3O-7" value="" style="endArrow=classic;html=1;rounded=0;exitX=0.5;exitY=1;exitDx=0;exitDy=0;entryX=0.5;entryY=0;entryDx=0;entryDy=0;" edge="1" parent="1" source="RQJ-cleiF4HPEuwwhb3O-4" target="RQJ-cleiF4HPEuwwhb3O-6">
          <mxGeometry width="50" height="50" relative="1" as="geometry">
            <mxPoint x="560" y="480" as="sourcePoint" />
            <mxPoint x="610" y="430" as="targetPoint" />
          </mxGeometry>
        </mxCell>
        <mxCell id="RQJ-cleiF4HPEuwwhb3O-8" value="Epsilon" style="html=1;whiteSpace=wrap;" vertex="1" parent="1">
          <mxGeometry x="150" y="350" width="110" height="50" as="geometry" />
        </mxCell>
        <mxCell id="RQJ-cleiF4HPEuwwhb3O-9" value="Bucket Size" style="html=1;whiteSpace=wrap;" vertex="1" parent="1">
          <mxGeometry x="150" y="430" width="110" height="50" as="geometry" />
        </mxCell>
        <mxCell id="RQJ-cleiF4HPEuwwhb3O-12" value="" style="endArrow=classic;html=1;rounded=0;exitX=1;exitY=0.5;exitDx=0;exitDy=0;entryX=1;entryY=0.5;entryDx=0;entryDy=0;" edge="1" parent="1" source="RQJ-cleiF4HPEuwwhb3O-1" target="RQJ-cleiF4HPEuwwhb3O-4">
          <mxGeometry width="50" height="50" relative="1" as="geometry">
            <mxPoint x="590" y="310" as="sourcePoint" />
            <mxPoint x="550" y="340" as="targetPoint" />
            <Array as="points">
              <mxPoint x="520" y="310" />
            </Array>
          </mxGeometry>
        </mxCell>
        <mxCell id="RQJ-cleiF4HPEuwwhb3O-13" value="CompressionRatio&lt;div&gt;Increase&lt;/div&gt;&lt;div&gt;BucketSize&lt;/div&gt;&lt;div&gt;Increase&lt;/div&gt;" style="html=1;whiteSpace=wrap;" vertex="1" parent="1">
          <mxGeometry x="70" y="600" width="110" height="70" as="geometry" />
        </mxCell>
        <mxCell id="RQJ-cleiF4HPEuwwhb3O-14" value="CompressionRatio&lt;div&gt;Increase&lt;/div&gt;&lt;div&gt;Epsilon&lt;/div&gt;&lt;div&gt;Increase&lt;/div&gt;" style="html=1;whiteSpace=wrap;" vertex="1" parent="1">
          <mxGeometry x="70" y="510" width="110" height="70" as="geometry" />
        </mxCell>
        <mxCell id="RQJ-cleiF4HPEuwwhb3O-15" value="CompressionRatio&lt;div&gt;Decrease&lt;/div&gt;&lt;div&gt;Epsilon&lt;/div&gt;&lt;div&gt;Decrease&lt;/div&gt;" style="html=1;whiteSpace=wrap;" vertex="1" parent="1">
          <mxGeometry x="210" y="510" width="110" height="70" as="geometry" />
        </mxCell>
        <mxCell id="RQJ-cleiF4HPEuwwhb3O-16" value="CompressionRatio&lt;div&gt;Decrease&lt;/div&gt;&lt;div&gt;BucketSize&lt;/div&gt;&lt;div&gt;Decrease&lt;/div&gt;" style="html=1;whiteSpace=wrap;" vertex="1" parent="1">
          <mxGeometry x="210" y="600" width="110" height="70" as="geometry" />
        </mxCell>
        <mxCell id="RQJ-cleiF4HPEuwwhb3O-17" value="" style="endArrow=classic;html=1;rounded=0;exitX=0;exitY=0.5;exitDx=0;exitDy=0;entryX=0.5;entryY=0;entryDx=0;entryDy=0;" edge="1" parent="1" source="RQJ-cleiF4HPEuwwhb3O-8" target="RQJ-cleiF4HPEuwwhb3O-14">
          <mxGeometry width="50" height="50" relative="1" as="geometry">
            <mxPoint x="60" y="420" as="sourcePoint" />
            <mxPoint x="110" y="370" as="targetPoint" />
            <Array as="points">
              <mxPoint x="100" y="420" />
            </Array>
          </mxGeometry>
        </mxCell>
        <mxCell id="RQJ-cleiF4HPEuwwhb3O-18" value="" style="endArrow=classic;html=1;rounded=0;exitX=1;exitY=0.5;exitDx=0;exitDy=0;entryX=0.818;entryY=0;entryDx=0;entryDy=0;entryPerimeter=0;" edge="1" parent="1" source="RQJ-cleiF4HPEuwwhb3O-8" target="RQJ-cleiF4HPEuwwhb3O-15">
          <mxGeometry width="50" height="50" relative="1" as="geometry">
            <mxPoint x="80" y="360" as="sourcePoint" />
            <mxPoint x="130" y="310" as="targetPoint" />
          </mxGeometry>
        </mxCell>
        <mxCell id="RQJ-cleiF4HPEuwwhb3O-19" value="" style="endArrow=classic;html=1;rounded=0;exitX=0.417;exitY=1.014;exitDx=0;exitDy=0;exitPerimeter=0;entryX=0.5;entryY=0;entryDx=0;entryDy=0;" edge="1" parent="1" source="RQJ-cleiF4HPEuwwhb3O-9" target="RQJ-cleiF4HPEuwwhb3O-13">
          <mxGeometry width="50" height="50" relative="1" as="geometry">
            <mxPoint x="350" y="610" as="sourcePoint" />
            <mxPoint x="400" y="560" as="targetPoint" />
            <Array as="points">
              <mxPoint x="190" y="590" />
            </Array>
          </mxGeometry>
        </mxCell>
        <mxCell id="RQJ-cleiF4HPEuwwhb3O-20" value="" style="endArrow=classic;html=1;rounded=0;exitX=0.5;exitY=1;exitDx=0;exitDy=0;entryX=0.5;entryY=0;entryDx=0;entryDy=0;" edge="1" parent="1" source="RQJ-cleiF4HPEuwwhb3O-9" target="RQJ-cleiF4HPEuwwhb3O-16">
          <mxGeometry width="50" height="50" relative="1" as="geometry">
            <mxPoint x="400" y="630" as="sourcePoint" />
            <mxPoint x="450" y="580" as="targetPoint" />
            <Array as="points">
              <mxPoint x="205" y="590" />
            </Array>
          </mxGeometry>
        </mxCell>
        <mxCell id="RQJ-cleiF4HPEuwwhb3O-21" value="" style="endArrow=classic;html=1;rounded=0;exitX=1;exitY=0.5;exitDx=0;exitDy=0;entryX=0.342;entryY=1.031;entryDx=0;entryDy=0;entryPerimeter=0;" edge="1" parent="1" source="RQJ-cleiF4HPEuwwhb3O-15" target="RQJ-cleiF4HPEuwwhb3O-6">
          <mxGeometry width="50" height="50" relative="1" as="geometry">
            <mxPoint x="370" y="600" as="sourcePoint" />
            <mxPoint x="420" y="550" as="targetPoint" />
          </mxGeometry>
        </mxCell>
        <mxCell id="RQJ-cleiF4HPEuwwhb3O-22" value="" style="endArrow=classic;html=1;rounded=0;exitX=1.004;exitY=0.565;exitDx=0;exitDy=0;exitPerimeter=0;entryX=0.617;entryY=0.997;entryDx=0;entryDy=0;entryPerimeter=0;" edge="1" parent="1" source="RQJ-cleiF4HPEuwwhb3O-16" target="RQJ-cleiF4HPEuwwhb3O-6">
          <mxGeometry width="50" height="50" relative="1" as="geometry">
            <mxPoint x="360" y="610" as="sourcePoint" />
            <mxPoint x="410" y="560" as="targetPoint" />
          </mxGeometry>
        </mxCell>
        <mxCell id="RQJ-cleiF4HPEuwwhb3O-23" value="" style="endArrow=classic;html=1;rounded=0;exitX=0;exitY=0.5;exitDx=0;exitDy=0;entryX=0;entryY=0.5;entryDx=0;entryDy=0;" edge="1" parent="1" source="RQJ-cleiF4HPEuwwhb3O-14" target="RQJ-cleiF4HPEuwwhb3O-6">
          <mxGeometry width="50" height="50" relative="1" as="geometry">
            <mxPoint x="180" y="330" as="sourcePoint" />
            <mxPoint x="230" y="280" as="targetPoint" />
            <Array as="points">
              <mxPoint x="30" y="430" />
              <mxPoint x="220" y="280" />
            </Array>
          </mxGeometry>
        </mxCell>
        <mxCell id="RQJ-cleiF4HPEuwwhb3O-24" value="" style="endArrow=classic;html=1;rounded=0;exitX=0.5;exitY=1;exitDx=0;exitDy=0;entryX=0.897;entryY=0.997;entryDx=0;entryDy=0;entryPerimeter=0;" edge="1" parent="1" source="RQJ-cleiF4HPEuwwhb3O-13" target="RQJ-cleiF4HPEuwwhb3O-6">
          <mxGeometry width="50" height="50" relative="1" as="geometry">
            <mxPoint x="460" y="730" as="sourcePoint" />
            <mxPoint x="510" y="680" as="targetPoint" />
            <Array as="points">
              <mxPoint x="370" y="690" />
            </Array>
          </mxGeometry>
        </mxCell>
        <mxCell id="RQJ-cleiF4HPEuwwhb3O-25" value="OptimalCondition&lt;div&gt;(&amp;gt;=1.1)&lt;/div&gt;" style="html=1;whiteSpace=wrap;" vertex="1" parent="1">
          <mxGeometry x="550" y="460" width="110" height="50" as="geometry" />
        </mxCell>
        <mxCell id="RQJ-cleiF4HPEuwwhb3O-26" value="" style="endArrow=classic;html=1;rounded=0;exitX=0;exitY=0.5;exitDx=0;exitDy=0;entryX=1;entryY=0.5;entryDx=0;entryDy=0;" edge="1" parent="1" source="RQJ-cleiF4HPEuwwhb3O-25" target="RQJ-cleiF4HPEuwwhb3O-6">
          <mxGeometry width="50" height="50" relative="1" as="geometry">
            <mxPoint x="520" y="680" as="sourcePoint" />
            <mxPoint x="570" y="630" as="targetPoint" />
          </mxGeometry>
        </mxCell>
      </root>
    </mxGraphModel>
  </diagram>
</mxfile>
